<mxfile host="app.diagrams.net" modified="2022-11-30T01:52:06.205Z" agent="5.0 (X11; Ubuntu)" etag="pUX68lOuC3IP0l-rarAn" version="20.5.3" type="github">
  <diagram id="C5RBs43oDa-KdzZeNtuy" name="Page-1">
    <mxGraphModel dx="1185" dy="661" grid="1" gridSize="10" guides="1" tooltips="1" connect="1" arrows="1" fold="1" page="1" pageScale="1" pageWidth="827" pageHeight="1169" math="0" shadow="0">
      <root>
        <mxCell id="WIyWlLk6GJQsqaUBKTNV-0" />
        <mxCell id="WIyWlLk6GJQsqaUBKTNV-1" parent="WIyWlLk6GJQsqaUBKTNV-0" />
        <mxCell id="aUtu-Hw8zfEPGe_YuFi0-15" value="dados" style="swimlane;whiteSpace=wrap;html=1;" vertex="1" parent="WIyWlLk6GJQsqaUBKTNV-1">
          <mxGeometry x="20" y="850" width="800" height="300" as="geometry" />
        </mxCell>
        <mxCell id="aUtu-Hw8zfEPGe_YuFi0-12" value="Musica" style="swimlane;fontStyle=0;align=center;verticalAlign=top;childLayout=stackLayout;horizontal=1;startSize=26;horizontalStack=0;resizeParent=1;resizeLast=0;collapsible=1;marginBottom=0;rounded=0;shadow=0;strokeWidth=1;" vertex="1" parent="aUtu-Hw8zfEPGe_YuFi0-15">
          <mxGeometry x="520" y="38" width="160" height="112" as="geometry">
            <mxRectangle x="340" y="380" width="170" height="26" as="alternateBounds" />
          </mxGeometry>
        </mxCell>
        <mxCell id="aUtu-Hw8zfEPGe_YuFi0-13" value="- nome : String" style="text;align=left;verticalAlign=top;spacingLeft=4;spacingRight=4;overflow=hidden;rotatable=0;points=[[0,0.5],[1,0.5]];portConstraint=eastwest;" vertex="1" parent="aUtu-Hw8zfEPGe_YuFi0-12">
          <mxGeometry y="26" width="160" height="26" as="geometry" />
        </mxCell>
        <mxCell id="aUtu-Hw8zfEPGe_YuFi0-30" value="- artistas : List&lt;Artista&gt;" style="text;align=left;verticalAlign=top;resizable=0;points=[];autosize=1;strokeColor=none;fillColor=none;spacingLeft=4;spacingRight=4;" vertex="1" parent="aUtu-Hw8zfEPGe_YuFi0-12">
          <mxGeometry y="52" width="160" height="30" as="geometry" />
        </mxCell>
        <mxCell id="aUtu-Hw8zfEPGe_YuFi0-31" value="- arquivo : String" style="text;align=left;verticalAlign=top;resizable=0;points=[];autosize=1;strokeColor=none;fillColor=none;spacingLeft=4;spacingRight=4;" vertex="1" parent="aUtu-Hw8zfEPGe_YuFi0-12">
          <mxGeometry y="82" width="160" height="30" as="geometry" />
        </mxCell>
        <mxCell id="aUtu-Hw8zfEPGe_YuFi0-123" style="edgeStyle=orthogonalEdgeStyle;rounded=0;orthogonalLoop=1;jettySize=auto;html=1;exitX=1;exitY=0.25;exitDx=0;exitDy=0;" edge="1" parent="aUtu-Hw8zfEPGe_YuFi0-15" source="aUtu-Hw8zfEPGe_YuFi0-9">
          <mxGeometry relative="1" as="geometry">
            <mxPoint x="520" y="131" as="targetPoint" />
            <Array as="points">
              <mxPoint x="470" y="131" />
              <mxPoint x="600" y="131" />
            </Array>
          </mxGeometry>
        </mxCell>
        <mxCell id="aUtu-Hw8zfEPGe_YuFi0-9" value="Playlist" style="swimlane;fontStyle=0;align=center;verticalAlign=top;childLayout=stackLayout;horizontal=1;startSize=26;horizontalStack=0;resizeParent=1;resizeLast=0;collapsible=1;marginBottom=0;rounded=0;shadow=0;strokeWidth=1;" vertex="1" parent="aUtu-Hw8zfEPGe_YuFi0-15">
          <mxGeometry x="260" y="110" width="160" height="82" as="geometry">
            <mxRectangle x="340" y="380" width="170" height="26" as="alternateBounds" />
          </mxGeometry>
        </mxCell>
        <mxCell id="aUtu-Hw8zfEPGe_YuFi0-10" value="- nome : String" style="text;align=left;verticalAlign=top;spacingLeft=4;spacingRight=4;overflow=hidden;rotatable=0;points=[[0,0.5],[1,0.5]];portConstraint=eastwest;" vertex="1" parent="aUtu-Hw8zfEPGe_YuFi0-9">
          <mxGeometry y="26" width="160" height="26" as="geometry" />
        </mxCell>
        <mxCell id="aUtu-Hw8zfEPGe_YuFi0-32" value="- playlist : List&lt;Musica&gt;" style="text;align=left;verticalAlign=top;resizable=0;points=[];autosize=1;strokeColor=none;fillColor=none;spacingLeft=4;spacingRight=4;" vertex="1" parent="aUtu-Hw8zfEPGe_YuFi0-9">
          <mxGeometry y="52" width="160" height="30" as="geometry" />
        </mxCell>
        <mxCell id="aUtu-Hw8zfEPGe_YuFi0-6" value="Usuario" style="swimlane;fontStyle=0;align=center;verticalAlign=top;childLayout=stackLayout;horizontal=1;startSize=26;horizontalStack=0;resizeParent=1;resizeLast=0;collapsible=1;marginBottom=0;rounded=0;shadow=0;strokeWidth=1;" vertex="1" parent="aUtu-Hw8zfEPGe_YuFi0-15">
          <mxGeometry x="30" y="108" width="160" height="112" as="geometry">
            <mxRectangle x="340" y="380" width="170" height="26" as="alternateBounds" />
          </mxGeometry>
        </mxCell>
        <mxCell id="aUtu-Hw8zfEPGe_YuFi0-7" value="- username : String" style="text;align=left;verticalAlign=top;spacingLeft=4;spacingRight=4;overflow=hidden;rotatable=0;points=[[0,0.5],[1,0.5]];portConstraint=eastwest;" vertex="1" parent="aUtu-Hw8zfEPGe_YuFi0-6">
          <mxGeometry y="26" width="160" height="26" as="geometry" />
        </mxCell>
        <mxCell id="aUtu-Hw8zfEPGe_YuFi0-44" value="- senha : String&#xa;" style="text;align=left;verticalAlign=top;resizable=0;points=[];autosize=1;strokeColor=none;fillColor=none;spacingLeft=4;spacingRight=4;" vertex="1" parent="aUtu-Hw8zfEPGe_YuFi0-6">
          <mxGeometry y="52" width="160" height="30" as="geometry" />
        </mxCell>
        <mxCell id="aUtu-Hw8zfEPGe_YuFi0-45" value="- playlists : List&amp;lt;Playlist&amp;gt;" style="text;html=1;align=left;verticalAlign=top;resizable=0;points=[];autosize=1;strokeColor=none;fillColor=none;spacingLeft=4;spacingRight=4;" vertex="1" parent="aUtu-Hw8zfEPGe_YuFi0-6">
          <mxGeometry y="82" width="160" height="30" as="geometry" />
        </mxCell>
        <mxCell id="aUtu-Hw8zfEPGe_YuFi0-3" value="Artista" style="swimlane;fontStyle=0;align=center;verticalAlign=top;childLayout=stackLayout;horizontal=1;startSize=26;horizontalStack=0;resizeParent=1;resizeLast=0;collapsible=1;marginBottom=0;rounded=0;shadow=0;strokeWidth=1;" vertex="1" parent="aUtu-Hw8zfEPGe_YuFi0-15">
          <mxGeometry x="500" y="210" width="200" height="82" as="geometry">
            <mxRectangle x="340" y="380" width="170" height="26" as="alternateBounds" />
          </mxGeometry>
        </mxCell>
        <mxCell id="aUtu-Hw8zfEPGe_YuFi0-4" value="- nome : String " style="text;align=left;verticalAlign=top;spacingLeft=4;spacingRight=4;overflow=hidden;rotatable=0;points=[[0,0.5],[1,0.5]];portConstraint=eastwest;" vertex="1" parent="aUtu-Hw8zfEPGe_YuFi0-3">
          <mxGeometry y="26" width="200" height="26" as="geometry" />
        </mxCell>
        <mxCell id="aUtu-Hw8zfEPGe_YuFi0-24" value="- musicasArtistas : List&lt;Musica&gt;" style="text;align=left;verticalAlign=top;resizable=0;points=[];autosize=1;strokeColor=none;fillColor=none;spacingLeft=4;spacingRight=5;" vertex="1" parent="aUtu-Hw8zfEPGe_YuFi0-3">
          <mxGeometry y="52" width="200" height="30" as="geometry" />
        </mxCell>
        <mxCell id="aUtu-Hw8zfEPGe_YuFi0-91" value="0..*" style="text;align=center;verticalAlign=middle;resizable=0;points=[];autosize=1;strokeColor=none;fillColor=none;spacingLeft=2;" vertex="1" parent="aUtu-Hw8zfEPGe_YuFi0-15">
          <mxGeometry x="140" y="78" width="40" height="30" as="geometry" />
        </mxCell>
        <mxCell id="aUtu-Hw8zfEPGe_YuFi0-92" value="- usuarios" style="text;align=center;verticalAlign=middle;resizable=0;points=[];autosize=1;strokeColor=none;fillColor=none;spacingRight=-7;" vertex="1" parent="aUtu-Hw8zfEPGe_YuFi0-15">
          <mxGeometry x="175" y="78" width="70" height="30" as="geometry" />
        </mxCell>
        <mxCell id="aUtu-Hw8zfEPGe_YuFi0-109" value="0..*" style="text;html=1;align=center;verticalAlign=middle;resizable=0;points=[];autosize=1;strokeColor=none;fillColor=none;" vertex="1" parent="aUtu-Hw8zfEPGe_YuFi0-15">
          <mxGeometry x="480" y="108" width="40" height="30" as="geometry" />
        </mxCell>
        <mxCell id="aUtu-Hw8zfEPGe_YuFi0-110" value="- playlist" style="text;html=1;align=center;verticalAlign=middle;resizable=0;points=[];autosize=1;strokeColor=none;fillColor=none;" vertex="1" parent="aUtu-Hw8zfEPGe_YuFi0-15">
          <mxGeometry x="460" y="130" width="70" height="30" as="geometry" />
        </mxCell>
        <mxCell id="aUtu-Hw8zfEPGe_YuFi0-117" value="0..*" style="text;html=1;align=center;verticalAlign=middle;resizable=0;points=[];autosize=1;strokeColor=none;fillColor=none;" vertex="1" parent="aUtu-Hw8zfEPGe_YuFi0-15">
          <mxGeometry x="560" y="149" width="40" height="30" as="geometry" />
        </mxCell>
        <mxCell id="aUtu-Hw8zfEPGe_YuFi0-118" value="- musicasArtistas" style="text;html=1;align=center;verticalAlign=middle;resizable=0;points=[];autosize=1;strokeColor=none;fillColor=none;" vertex="1" parent="aUtu-Hw8zfEPGe_YuFi0-15">
          <mxGeometry x="590" y="149" width="120" height="30" as="geometry" />
        </mxCell>
        <mxCell id="aUtu-Hw8zfEPGe_YuFi0-121" value="- artistas" style="text;html=1;align=center;verticalAlign=middle;resizable=0;points=[];autosize=1;strokeColor=none;fillColor=none;spacingRight=-5;" vertex="1" parent="aUtu-Hw8zfEPGe_YuFi0-15">
          <mxGeometry x="595" y="180" width="60" height="30" as="geometry" />
        </mxCell>
        <mxCell id="aUtu-Hw8zfEPGe_YuFi0-120" value="0..*" style="text;html=1;align=center;verticalAlign=middle;resizable=0;points=[];autosize=1;strokeColor=none;fillColor=none;" vertex="1" parent="aUtu-Hw8zfEPGe_YuFi0-15">
          <mxGeometry x="560" y="180" width="40" height="30" as="geometry" />
        </mxCell>
        <mxCell id="aUtu-Hw8zfEPGe_YuFi0-129" style="edgeStyle=orthogonalEdgeStyle;rounded=0;orthogonalLoop=1;jettySize=auto;html=1;entryX=0;entryY=0.433;entryDx=0;entryDy=0;entryPerimeter=0;" edge="1" parent="aUtu-Hw8zfEPGe_YuFi0-15" source="aUtu-Hw8zfEPGe_YuFi0-44" target="aUtu-Hw8zfEPGe_YuFi0-32">
          <mxGeometry relative="1" as="geometry" />
        </mxCell>
        <mxCell id="aUtu-Hw8zfEPGe_YuFi0-132" value="" style="endArrow=none;html=1;rounded=0;exitX=0.5;exitY=0;exitDx=0;exitDy=0;" edge="1" parent="aUtu-Hw8zfEPGe_YuFi0-15" source="aUtu-Hw8zfEPGe_YuFi0-3">
          <mxGeometry width="50" height="50" relative="1" as="geometry">
            <mxPoint x="599.91" y="198" as="sourcePoint" />
            <mxPoint x="599.91" y="150" as="targetPoint" />
          </mxGeometry>
        </mxCell>
        <mxCell id="aUtu-Hw8zfEPGe_YuFi0-133" value="0..*" style="text;html=1;align=center;verticalAlign=middle;resizable=0;points=[];autosize=1;strokeColor=none;fillColor=none;" vertex="1" parent="aUtu-Hw8zfEPGe_YuFi0-15">
          <mxGeometry x="220" y="149" width="40" height="30" as="geometry" />
        </mxCell>
        <mxCell id="aUtu-Hw8zfEPGe_YuFi0-134" value="- playlists" style="text;html=1;align=center;verticalAlign=middle;resizable=0;points=[];autosize=1;strokeColor=none;fillColor=none;spacingRight=9;spacingTop=7;" vertex="1" parent="aUtu-Hw8zfEPGe_YuFi0-15">
          <mxGeometry x="195" y="170" width="80" height="30" as="geometry" />
        </mxCell>
        <mxCell id="aUtu-Hw8zfEPGe_YuFi0-145" value="- musicas" style="text;html=1;align=center;verticalAlign=middle;resizable=0;points=[];autosize=1;strokeColor=none;fillColor=none;spacingTop=-7;spacingRight=2;" vertex="1" parent="aUtu-Hw8zfEPGe_YuFi0-15">
          <mxGeometry x="455" y="68" width="70" height="20" as="geometry" />
        </mxCell>
        <mxCell id="aUtu-Hw8zfEPGe_YuFi0-169" value="0..*" style="text;html=1;align=center;verticalAlign=middle;resizable=0;points=[];autosize=1;strokeColor=none;fillColor=none;" vertex="1" parent="aUtu-Hw8zfEPGe_YuFi0-15">
          <mxGeometry x="460" y="192" width="40" height="30" as="geometry" />
        </mxCell>
        <mxCell id="aUtu-Hw8zfEPGe_YuFi0-170" value="- artistas" style="text;html=1;align=center;verticalAlign=middle;resizable=0;points=[];autosize=1;strokeColor=none;fillColor=none;" vertex="1" parent="aUtu-Hw8zfEPGe_YuFi0-15">
          <mxGeometry x="430" y="220" width="70" height="30" as="geometry" />
        </mxCell>
        <mxCell id="aUtu-Hw8zfEPGe_YuFi0-144" value="0..*" style="text;html=1;align=center;verticalAlign=middle;resizable=0;points=[];autosize=1;strokeColor=none;fillColor=none;spacingBottom=5;spacingLeft=-4;" vertex="1" parent="aUtu-Hw8zfEPGe_YuFi0-15">
          <mxGeometry x="495" y="38" width="30" height="30" as="geometry" />
        </mxCell>
        <mxCell id="aUtu-Hw8zfEPGe_YuFi0-16" value="negocio" style="swimlane;whiteSpace=wrap;html=1;startSize=23;" vertex="1" parent="WIyWlLk6GJQsqaUBKTNV-1">
          <mxGeometry x="20" y="250" width="790" height="580" as="geometry" />
        </mxCell>
        <mxCell id="aUtu-Hw8zfEPGe_YuFi0-0" value="SisAplicativo" style="swimlane;fontStyle=0;align=center;verticalAlign=top;childLayout=stackLayout;horizontal=1;startSize=26;horizontalStack=0;resizeParent=1;resizeLast=0;collapsible=1;marginBottom=0;rounded=0;shadow=0;strokeWidth=1;" vertex="1" parent="aUtu-Hw8zfEPGe_YuFi0-16">
          <mxGeometry x="160" y="50" width="440" height="490" as="geometry">
            <mxRectangle x="340" y="380" width="170" height="26" as="alternateBounds" />
          </mxGeometry>
        </mxCell>
        <mxCell id="aUtu-Hw8zfEPGe_YuFi0-1" value="- usuarios : List&lt;Usuario&gt;" style="text;align=left;verticalAlign=top;spacingLeft=4;spacingRight=4;overflow=hidden;rotatable=0;points=[[0,0.5],[1,0.5]];portConstraint=eastwest;" vertex="1" parent="aUtu-Hw8zfEPGe_YuFi0-0">
          <mxGeometry y="26" width="440" height="26" as="geometry" />
        </mxCell>
        <mxCell id="aUtu-Hw8zfEPGe_YuFi0-49" value="- ulog : Usuario" style="text;align=left;verticalAlign=top;resizable=0;points=[];autosize=1;strokeColor=none;fillColor=none;spacingLeft=4;spacingRight=4;" vertex="1" parent="aUtu-Hw8zfEPGe_YuFi0-0">
          <mxGeometry y="52" width="440" height="30" as="geometry" />
        </mxCell>
        <mxCell id="aUtu-Hw8zfEPGe_YuFi0-47" value="- musicas : List&lt;Musica&gt;" style="text;align=left;verticalAlign=top;resizable=0;points=[];autosize=1;strokeColor=none;fillColor=none;spacingLeft=4;spacingRight=4;" vertex="1" parent="aUtu-Hw8zfEPGe_YuFi0-0">
          <mxGeometry y="82" width="440" height="30" as="geometry" />
        </mxCell>
        <mxCell id="aUtu-Hw8zfEPGe_YuFi0-46" value="- artistas : List&lt;Artista&gt;" style="text;align=left;verticalAlign=top;resizable=0;points=[];autosize=1;strokeColor=none;fillColor=none;spacingLeft=4;spacingRight=4;" vertex="1" parent="aUtu-Hw8zfEPGe_YuFi0-0">
          <mxGeometry y="112" width="440" height="30" as="geometry" />
        </mxCell>
        <mxCell id="aUtu-Hw8zfEPGe_YuFi0-2" value="" style="line;html=1;strokeWidth=1;align=left;verticalAlign=middle;spacingTop=-1;spacingLeft=3;spacingRight=3;rotatable=0;labelPosition=right;points=[];portConstraint=eastwest;" vertex="1" parent="aUtu-Hw8zfEPGe_YuFi0-0">
          <mxGeometry y="142" width="440" height="8" as="geometry" />
        </mxCell>
        <mxCell id="aUtu-Hw8zfEPGe_YuFi0-51" value="+ cadastrarUsuario(username : String, senha : String) : boolean" style="text;align=left;verticalAlign=top;resizable=0;points=[];autosize=1;strokeColor=none;fillColor=none;spacingLeft=4;spacingRight=4;" vertex="1" parent="aUtu-Hw8zfEPGe_YuFi0-0">
          <mxGeometry y="150" width="440" height="30" as="geometry" />
        </mxCell>
        <mxCell id="aUtu-Hw8zfEPGe_YuFi0-52" value="+ excluirUsuario(username : String, senha : String) : boolean" style="text;align=left;verticalAlign=top;resizable=0;points=[];autosize=1;strokeColor=none;fillColor=none;spacingLeft=4;spacingRight=4;" vertex="1" parent="aUtu-Hw8zfEPGe_YuFi0-0">
          <mxGeometry y="180" width="440" height="30" as="geometry" />
        </mxCell>
        <mxCell id="aUtu-Hw8zfEPGe_YuFi0-53" value="+ loginUsuario(username : String, senha : String) : boolean" style="text;align=left;verticalAlign=top;resizable=0;points=[];autosize=1;strokeColor=none;fillColor=none;spacingLeft=4;spacingRight=4;" vertex="1" parent="aUtu-Hw8zfEPGe_YuFi0-0">
          <mxGeometry y="210" width="440" height="30" as="geometry" />
        </mxCell>
        <mxCell id="aUtu-Hw8zfEPGe_YuFi0-54" value="+ logoutUsuario() : void" style="text;align=left;verticalAlign=top;resizable=0;points=[];autosize=1;strokeColor=none;fillColor=none;spacingLeft=4;spacingRight=4;" vertex="1" parent="aUtu-Hw8zfEPGe_YuFi0-0">
          <mxGeometry y="240" width="440" height="30" as="geometry" />
        </mxCell>
        <mxCell id="aUtu-Hw8zfEPGe_YuFi0-55" value="+ criarPlaylist(nome : String) : boolean" style="text;align=left;verticalAlign=top;resizable=0;points=[];autosize=1;strokeColor=none;fillColor=none;spacingLeft=4;spacingRight=4;" vertex="1" parent="aUtu-Hw8zfEPGe_YuFi0-0">
          <mxGeometry y="270" width="440" height="30" as="geometry" />
        </mxCell>
        <mxCell id="aUtu-Hw8zfEPGe_YuFi0-56" value="+ adicionar MusicaPlaylist(nomeP : String, nomeM : String) : boolean" style="text;align=left;verticalAlign=top;resizable=0;points=[];autosize=1;strokeColor=none;fillColor=none;spacingLeft=4;spacingRight=4;" vertex="1" parent="aUtu-Hw8zfEPGe_YuFi0-0">
          <mxGeometry y="300" width="440" height="30" as="geometry" />
        </mxCell>
        <mxCell id="aUtu-Hw8zfEPGe_YuFi0-57" value="+ excluirMusicaPlaylist(nomeP : String, nomeM : String) : boolean" style="text;align=left;verticalAlign=top;resizable=0;points=[];autosize=1;strokeColor=none;fillColor=none;spacingLeft=4;spacingRight=4;" vertex="1" parent="aUtu-Hw8zfEPGe_YuFi0-0">
          <mxGeometry y="330" width="440" height="30" as="geometry" />
        </mxCell>
        <mxCell id="aUtu-Hw8zfEPGe_YuFi0-58" value="+ adicionarMusica(nome : String, nomeArtista : String, arquivo : String) : boolean" style="text;html=1;align=center;verticalAlign=middle;resizable=0;points=[];autosize=1;strokeColor=none;fillColor=none;" vertex="1" parent="aUtu-Hw8zfEPGe_YuFi0-0">
          <mxGeometry y="360" width="440" height="30" as="geometry" />
        </mxCell>
        <mxCell id="aUtu-Hw8zfEPGe_YuFi0-59" value="+ excluirMusica(nome : String) : boolean&#xa;" style="text;align=left;verticalAlign=top;resizable=0;points=[];autosize=1;strokeColor=none;fillColor=none;spacingLeft=4;spacingRight=4;" vertex="1" parent="aUtu-Hw8zfEPGe_YuFi0-0">
          <mxGeometry y="390" width="440" height="30" as="geometry" />
        </mxCell>
        <mxCell id="aUtu-Hw8zfEPGe_YuFi0-60" value="+ reproduzirMusica(nome : String) : boolean" style="text;align=left;verticalAlign=top;resizable=0;points=[];autosize=1;strokeColor=none;fillColor=none;spacingLeft=4;spacingRight=4;" vertex="1" parent="aUtu-Hw8zfEPGe_YuFi0-0">
          <mxGeometry y="420" width="440" height="30" as="geometry" />
        </mxCell>
        <mxCell id="aUtu-Hw8zfEPGe_YuFi0-61" value="+ adicionarArtista(nomeM : String, nomeA String) : boolean" style="text;align=left;verticalAlign=top;resizable=0;points=[];autosize=1;strokeColor=none;fillColor=none;spacingLeft=4;spacingRight=4;" vertex="1" parent="aUtu-Hw8zfEPGe_YuFi0-0">
          <mxGeometry y="450" width="440" height="30" as="geometry" />
        </mxCell>
        <mxCell id="aUtu-Hw8zfEPGe_YuFi0-87" value="1" style="text;align=center;verticalAlign=middle;resizable=0;points=[];autosize=1;strokeColor=none;fillColor=none;" vertex="1" parent="aUtu-Hw8zfEPGe_YuFi0-16">
          <mxGeometry x="350" y="20" width="30" height="30" as="geometry" />
        </mxCell>
        <mxCell id="aUtu-Hw8zfEPGe_YuFi0-88" value="- s" style="text;align=center;verticalAlign=middle;resizable=0;points=[];autosize=1;strokeColor=none;fillColor=none;" vertex="1" parent="aUtu-Hw8zfEPGe_YuFi0-16">
          <mxGeometry x="380" y="20" width="40" height="30" as="geometry" />
        </mxCell>
        <mxCell id="aUtu-Hw8zfEPGe_YuFi0-17" value="apresentacao" style="swimlane;whiteSpace=wrap;html=1;" vertex="1" parent="WIyWlLk6GJQsqaUBKTNV-1">
          <mxGeometry x="20" y="20" width="790" height="200" as="geometry" />
        </mxCell>
        <mxCell id="zkfFHV4jXpPFQw0GAbJ--13" value="Main" style="swimlane;fontStyle=0;align=center;verticalAlign=top;childLayout=stackLayout;horizontal=1;startSize=26;horizontalStack=0;resizeParent=1;resizeLast=0;collapsible=1;marginBottom=0;rounded=0;shadow=0;strokeWidth=1;" parent="aUtu-Hw8zfEPGe_YuFi0-17" vertex="1">
          <mxGeometry x="300" y="70" width="160" height="90" as="geometry">
            <mxRectangle x="340" y="380" width="170" height="26" as="alternateBounds" />
          </mxGeometry>
        </mxCell>
        <mxCell id="zkfFHV4jXpPFQw0GAbJ--14" value="- s : SisAplicativo" style="text;align=left;verticalAlign=top;spacingLeft=4;spacingRight=4;overflow=hidden;rotatable=0;points=[[0,0.5],[1,0.5]];portConstraint=eastwest;" parent="zkfFHV4jXpPFQw0GAbJ--13" vertex="1">
          <mxGeometry y="26" width="160" height="26" as="geometry" />
        </mxCell>
        <mxCell id="zkfFHV4jXpPFQw0GAbJ--15" value="" style="line;html=1;strokeWidth=1;align=left;verticalAlign=middle;spacingTop=-1;spacingLeft=3;spacingRight=3;rotatable=0;labelPosition=right;points=[];portConstraint=eastwest;" parent="zkfFHV4jXpPFQw0GAbJ--13" vertex="1">
          <mxGeometry y="52" width="160" height="8" as="geometry" />
        </mxCell>
        <mxCell id="aUtu-Hw8zfEPGe_YuFi0-20" value="+ MenuBoasVindas(s)" style="text;align=left;verticalAlign=top;resizable=0;points=[];autosize=1;strokeColor=none;fillColor=none;spacingLeft=4;spacingRight=4;" vertex="1" parent="zkfFHV4jXpPFQw0GAbJ--13">
          <mxGeometry y="60" width="160" height="30" as="geometry" />
        </mxCell>
        <mxCell id="aUtu-Hw8zfEPGe_YuFi0-89" style="edgeStyle=orthogonalEdgeStyle;rounded=0;orthogonalLoop=1;jettySize=auto;html=1;" edge="1" parent="WIyWlLk6GJQsqaUBKTNV-1" source="zkfFHV4jXpPFQw0GAbJ--13" target="aUtu-Hw8zfEPGe_YuFi0-0">
          <mxGeometry relative="1" as="geometry" />
        </mxCell>
        <mxCell id="aUtu-Hw8zfEPGe_YuFi0-141" style="edgeStyle=orthogonalEdgeStyle;rounded=0;orthogonalLoop=1;jettySize=auto;html=1;" edge="1" parent="WIyWlLk6GJQsqaUBKTNV-1" target="aUtu-Hw8zfEPGe_YuFi0-6">
          <mxGeometry relative="1" as="geometry">
            <mxPoint x="200" y="790" as="sourcePoint" />
            <mxPoint x="200" y="970" as="targetPoint" />
            <Array as="points">
              <mxPoint x="200" y="790" />
            </Array>
          </mxGeometry>
        </mxCell>
        <mxCell id="aUtu-Hw8zfEPGe_YuFi0-143" style="edgeStyle=orthogonalEdgeStyle;rounded=0;orthogonalLoop=1;jettySize=auto;html=1;entryX=0;entryY=0.196;entryDx=0;entryDy=0;entryPerimeter=0;" edge="1" parent="WIyWlLk6GJQsqaUBKTNV-1" target="aUtu-Hw8zfEPGe_YuFi0-12">
          <mxGeometry relative="1" as="geometry">
            <mxPoint x="490" y="790" as="sourcePoint" />
            <mxPoint x="530" y="940" as="targetPoint" />
            <Array as="points">
              <mxPoint x="490" y="790" />
              <mxPoint x="490" y="910" />
            </Array>
          </mxGeometry>
        </mxCell>
        <mxCell id="aUtu-Hw8zfEPGe_YuFi0-168" style="edgeStyle=orthogonalEdgeStyle;rounded=0;orthogonalLoop=1;jettySize=auto;html=1;entryX=0.004;entryY=0.12;entryDx=0;entryDy=0;entryPerimeter=0;" edge="1" parent="WIyWlLk6GJQsqaUBKTNV-1" target="aUtu-Hw8zfEPGe_YuFi0-3">
          <mxGeometry relative="1" as="geometry">
            <mxPoint x="450" y="790" as="sourcePoint" />
            <mxPoint x="500" y="1140" as="targetPoint" />
            <Array as="points">
              <mxPoint x="450" y="790" />
              <mxPoint x="450" y="1070" />
            </Array>
          </mxGeometry>
        </mxCell>
      </root>
    </mxGraphModel>
  </diagram>
</mxfile>
